<svg width="39" height="26" viewBox="0 0 39 26" fill="none" xmlns="http://www.w3.org/2000/svg">
<rect x="0.824219" width="38.0685" height="25.9999" rx="4" fill="#1F72CD"/>
<path fill-rule="evenodd" clip-rule="evenodd" d="M8.09086 9.20703L4.63086 17.0576H8.77297L9.28647 15.8059H10.4602L10.9737 17.0576H15.533V16.1023L15.9393 17.0576H18.2977L18.704 16.0821V17.0576H28.1861L29.339 15.8384L30.4186 17.0576L35.2888 17.0677L31.8179 13.1543L35.2888 9.20703H30.4942L29.3718 10.4037L28.3262 9.20703H18.0109L17.1252 11.2333L16.2186 9.20703H12.0851V10.1299L11.6253 9.20703H8.09086ZM22.25 10.3203H27.6951L29.3605 12.1648L31.0795 10.3203H32.7449L30.2145 13.1516L32.7449 15.9503H31.004L29.3386 14.0844L27.6108 15.9503H22.25V10.3203ZM23.5957 12.5176V11.4893V11.4883H26.9933L28.4758 13.1329L26.9276 14.7865H23.5957V13.6638H26.5662V12.5176H23.5957ZM8.89319 10.3203H10.9122L13.2073 15.6439V10.3203H15.4191L17.1917 14.1373L18.8254 10.3203H21.0261V15.9536H19.687L19.6761 11.5394L17.7238 15.9536H16.5259L14.5627 11.5394V15.9536H11.8079L11.2856 14.6907H8.464L7.94281 15.9525H6.4668L8.89319 10.3203ZM8.94531 13.5232L9.87492 11.2734L10.8035 13.5232H8.94531Z" fill="white"/>
</svg>
