<svg width="39" height="26" viewBox="0 0 39 26" fill="none" xmlns="http://www.w3.org/2000/svg">
<rect x="0.136719" width="38.0685" height="25.9999" rx="4" fill="white"/>
<path fill-rule="evenodd" clip-rule="evenodd" d="M9.21315 9.67606C9.7244 9.71902 10.2357 9.41833 10.5552 9.03711C10.8694 8.64515 11.0771 8.11896 11.0238 7.58203C10.5712 7.60351 10.012 7.88271 9.69245 8.27467C9.39954 8.61294 9.14925 9.16061 9.21315 9.67606ZM15.293 16.5914V8.2207H18.4084C20.0167 8.2207 21.1404 9.33752 21.1404 10.9698C21.1404 12.6021 19.9954 13.7296 18.3658 13.7296H16.5817V16.5914H15.293ZM11.0171 9.77806C10.5667 9.75192 10.1558 9.91463 9.82382 10.046C9.6102 10.1306 9.42931 10.2022 9.29168 10.2022C9.13724 10.2022 8.94887 10.1268 8.73738 10.0421C8.46026 9.93108 8.14343 9.80418 7.81119 9.81027C7.04964 9.82101 6.34134 10.2559 5.95258 10.9486C5.15375 12.3338 5.74488 14.3849 6.51708 15.5125C6.8952 16.0709 7.34787 16.683 7.94432 16.6615C8.20673 16.6515 8.39549 16.5708 8.59084 16.4872C8.81574 16.391 9.04937 16.291 9.41417 16.291C9.76632 16.291 9.98973 16.3884 10.2042 16.4818C10.4081 16.5707 10.6039 16.656 10.8947 16.6508C11.5124 16.64 11.9012 16.0924 12.2793 15.534C12.6873 14.9346 12.8667 14.3497 12.8939 14.261L12.8971 14.2507C12.8964 14.25 12.8914 14.2477 12.8825 14.2436L12.8825 14.2436C12.7461 14.1806 11.7035 13.6994 11.6935 12.409C11.6835 11.3259 12.5204 10.7771 12.6522 10.6908C12.6602 10.6855 12.6656 10.6819 12.6681 10.6801C12.1355 9.88544 11.3047 9.79954 11.0171 9.77806ZM23.4953 16.6552C24.3048 16.6552 25.0557 16.2417 25.3965 15.5867H25.4231V16.5907H26.616V12.4241C26.616 11.216 25.6574 10.4375 24.1823 10.4375C22.8136 10.4375 21.8018 11.2268 21.7645 12.3114H22.9255C23.0213 11.7959 23.4953 11.4577 24.145 11.4577C24.9332 11.4577 25.3752 11.8281 25.3752 12.5101V12.9718L23.7669 13.0685C22.2704 13.1597 21.4609 13.7772 21.4609 14.8511C21.4609 15.9357 22.297 16.6552 23.4953 16.6552ZM23.8405 15.6626C23.1535 15.6626 22.7168 15.3297 22.7168 14.8197C22.7168 14.2935 23.1375 13.9874 23.9417 13.9391L25.3742 13.8478V14.3203C25.3742 15.1042 24.7139 15.6626 23.8405 15.6626ZM30.5715 16.9197C30.0549 18.3856 29.4638 18.8688 28.207 18.8688C28.1111 18.8688 27.7916 18.8581 27.717 18.8366V17.8325C27.7969 17.8433 27.9939 17.854 28.0951 17.854C28.665 17.854 28.9845 17.6124 29.1815 16.9842L29.2987 16.6137L27.1152 10.5195H28.4626L29.9804 15.4647H30.007L31.5248 10.5195H32.8348L30.5715 16.9197ZM16.584 9.31617H18.0698C19.1882 9.31617 19.8272 9.91753 19.8272 10.9753C19.8272 12.033 19.1882 12.6398 18.0645 12.6398H16.584V9.31617Z" fill="black"/>
</svg>
