<svg width="7" height="8" viewBox="0 0 7 8" fill="none" xmlns="http://www.w3.org/2000/svg">
<mask id="mask0_2556_20513" style="mask-type:alpha" maskUnits="userSpaceOnUse" x="0" y="0" width="7" height="8">
<rect y="0.0117188" width="7" height="7.01703" fill="#D9D9D9"/>
</mask>
<g mask="url(#mask0_2556_20513)">
<path d="M5.9119 0.203476C6.03287 0.0791221 6.19384 0.0103741 6.36085 0.0117387C6.52786 0.0131032 6.68785 0.0844738 6.80705 0.21079C6.92626 0.337107 6.99536 0.508489 6.99977 0.688774C7.00419 0.869058 6.94357 1.04414 6.83071 1.17709L5.11761 3.49057L3.4045 5.80405C3.34558 5.87257 3.27448 5.92756 3.19543 5.96573C3.11639 6.0039 3.03102 6.02447 2.94445 6.0262C2.85788 6.02793 2.77187 6.01079 2.69157 5.97581C2.61127 5.94082 2.53832 5.88872 2.4771 5.8226L0.204979 3.3691C0.141704 3.30543 0.0909531 3.22866 0.0557533 3.14335C0.0205534 3.05804 0.00162595 2.96596 0.000100227 2.87258C-0.0014255 2.7792 0.0144818 2.68645 0.0468729 2.59986C0.0792639 2.51326 0.127475 2.4346 0.188631 2.36856C0.249787 2.30253 0.322633 2.25047 0.402826 2.21549C0.483018 2.18051 0.568914 2.16334 0.655387 2.16498C0.741861 2.16663 0.827141 2.18707 0.906141 2.22508C0.985141 2.26309 1.05624 2.31789 1.1152 2.38622L2.91332 4.32695L5.89559 0.223876C5.90096 0.216737 5.90583 0.209926 5.9119 0.203476Z" fill="#1E1E1E"/>
</g>
</svg>
