<svg width="39" height="26" viewBox="0 0 39 26" fill="none" xmlns="http://www.w3.org/2000/svg">
<rect x="0.466797" width="38.0685" height="25.9999" rx="4" fill="white"/>
<path fill-rule="evenodd" clip-rule="evenodd" d="M19.7687 18.5847C18.4728 19.6983 16.7919 20.3705 14.9552 20.3705C10.8562 20.3705 7.5332 17.0224 7.5332 12.8923C7.5332 8.76217 10.8562 5.41406 14.9552 5.41406C16.7919 5.41406 18.4728 6.08627 19.7687 7.19983C21.0646 6.08627 22.7455 5.41406 24.5822 5.41406C28.6813 5.41406 32.0042 8.76217 32.0042 12.8923C32.0042 17.0224 28.6813 20.3705 24.5822 20.3705C22.7455 20.3705 21.0646 19.6983 19.7687 18.5847Z" fill="#ED0006"/>
<path fill-rule="evenodd" clip-rule="evenodd" d="M19.7695 18.5839C21.3653 17.2123 22.3771 15.1713 22.3771 12.8923C22.3771 10.6132 21.3653 8.57225 19.7695 7.20061C21.0656 6.08658 22.7468 5.41406 24.5839 5.41406C28.683 5.41406 32.006 8.76217 32.006 12.8923C32.006 17.0224 28.683 20.3705 24.5839 20.3705C22.7468 20.3705 21.0656 19.698 19.7695 18.5839Z" fill="#F9A000"/>
<path fill-rule="evenodd" clip-rule="evenodd" d="M19.7707 18.5841C21.3669 17.2125 22.3792 15.1712 22.3792 12.8917C22.3792 10.6122 21.3669 8.57086 19.7707 7.19922C18.1744 8.57086 17.1621 10.6122 17.1621 12.8917C17.1621 15.1712 18.1744 17.2125 19.7707 18.5841Z" fill="#FF5E00"/>
</svg>
