<svg width="39" height="26" viewBox="0 0 39 26" fill="none" xmlns="http://www.w3.org/2000/svg">
<rect x="0.0683594" width="38.0685" height="25.9999" rx="4" fill="white"/>
<path fill-rule="evenodd" clip-rule="evenodd" d="M10.837 16.5078H9.14498C9.0292 16.5078 8.93072 16.5916 8.91267 16.7054L8.22834 21.0269C8.21474 21.1122 8.28104 21.1891 8.36788 21.1891H9.17566C9.29144 21.1891 9.38992 21.1052 9.40797 20.9912L9.59254 19.8257C9.61035 19.7115 9.70906 19.6278 9.82461 19.6278H10.3602C11.4748 19.6278 12.118 19.0906 12.2861 18.0261C12.3618 17.5604 12.2893 17.1944 12.0703 16.9381C11.8299 16.6567 11.4033 16.5078 10.837 16.5078ZM11.0322 18.0862C10.9397 18.6909 10.4758 18.6909 10.0272 18.6909H9.77191L9.95103 17.5615C9.96167 17.4933 10.021 17.443 10.0903 17.443H10.2073C10.5129 17.443 10.8011 17.443 10.9501 17.6165C11.0388 17.72 11.0661 17.8737 11.0322 18.0862ZM15.8948 18.0668H15.0845C15.0155 18.0668 14.9558 18.1171 14.9452 18.1854L14.9093 18.4111L14.8527 18.3293C14.6773 18.0757 14.2862 17.991 13.8957 17.991C13.0003 17.991 12.2356 18.6664 12.0867 19.6139C12.0093 20.0865 12.1193 20.5384 12.3885 20.8536C12.6354 21.1433 12.9887 21.2641 13.409 21.2641C14.1305 21.2641 14.5306 20.802 14.5306 20.802L14.4944 21.0263C14.4808 21.1121 14.5471 21.1889 14.6334 21.1889H15.3633C15.4794 21.1889 15.5773 21.1051 15.5956 20.9911L16.0335 18.2289C16.0474 18.144 15.9813 18.0668 15.8948 18.0668ZM14.7653 19.6375C14.6871 20.0985 14.3197 20.408 13.8512 20.408C13.6159 20.408 13.4278 20.3329 13.3071 20.1905C13.1874 20.0491 13.1418 19.8477 13.1799 19.6235C13.253 19.1663 13.6266 18.8468 14.088 18.8468C14.318 18.8468 14.5051 18.9228 14.6283 19.0665C14.7517 19.2117 14.8007 19.4142 14.7653 19.6375ZM19.3958 18.0667H20.2101C20.3241 18.0667 20.3906 18.194 20.3258 18.2872L17.6178 22.1806C17.5739 22.2437 17.5017 22.2812 17.4245 22.2812H16.6113C16.4968 22.2812 16.4299 22.1528 16.4962 22.0594L17.3394 20.8739L16.4426 18.2524C16.4116 18.1613 16.4791 18.0667 16.5765 18.0667H17.3765C17.4805 18.0667 17.5722 18.1346 17.6022 18.2337L18.0781 19.817L19.2012 18.1694C19.2452 18.1051 19.3182 18.0667 19.3958 18.0667Z" fill="#253B80"/>
<path fill-rule="evenodd" clip-rule="evenodd" d="M28.2234 21.0271L28.9178 16.6266C28.9285 16.5583 28.9879 16.508 29.0569 16.5078H29.8387C29.925 16.5078 29.9913 16.5849 29.9777 16.6702L29.2929 20.9914C29.275 21.1055 29.1766 21.1893 29.0606 21.1893H28.3624C28.2761 21.1893 28.2098 21.1124 28.2234 21.0271ZM22.9054 16.508H21.2131C21.0976 16.508 20.9991 16.5919 20.981 16.7057L20.2967 21.0271C20.2831 21.1124 20.3494 21.1893 20.4358 21.1893H21.3041C21.3848 21.1893 21.4539 21.1307 21.4665 21.0508L21.6606 19.8259C21.6785 19.7117 21.7772 19.628 21.8927 19.628H22.4281C23.5429 19.628 24.186 19.0908 24.3542 18.0263C24.4301 17.5606 24.3572 17.1946 24.1383 16.9383C23.8979 16.657 23.4717 16.508 22.9054 16.508ZM23.1006 18.0864C23.0083 18.6911 22.5444 18.6911 22.0956 18.6911H21.8405L22.0199 17.5617C22.0306 17.4935 22.0894 17.4432 22.1589 17.4432H22.2759C22.5813 17.4432 22.8698 17.4432 23.0186 17.6167C23.1075 17.7202 23.1345 17.874 23.1006 18.0864ZM27.9627 18.067H27.1531C27.0834 18.067 27.0244 18.1173 27.0139 18.1856L26.9781 18.4113L26.9212 18.3295C26.7458 18.0759 26.3549 17.9912 25.9645 17.9912C25.0691 17.9912 24.3046 18.6666 24.1557 19.6141C24.0785 20.0867 24.1881 20.5386 24.4572 20.8538C24.7046 21.1436 25.0575 21.2643 25.4778 21.2643C26.1992 21.2643 26.5993 20.8023 26.5993 20.8023L26.5632 21.0266C26.5496 21.1123 26.6159 21.1892 26.7028 21.1892H27.4323C27.5478 21.1892 27.6463 21.1054 27.6644 20.9913L28.1025 18.2292C28.1159 18.1442 28.0496 18.067 27.9627 18.067ZM26.8334 19.6377C26.7557 20.0988 26.3878 20.4083 25.9192 20.4083C25.6844 20.4083 25.4959 20.3331 25.3751 20.1907C25.2553 20.0493 25.2104 19.8479 25.248 19.6237C25.3214 19.1665 25.6945 18.847 26.1559 18.847C26.3861 18.847 26.573 18.9231 26.6963 19.0668C26.8202 19.2119 26.8692 19.4144 26.8334 19.6377Z" fill="#179BD7"/>
<path d="M17.1007 14.9639L17.3087 13.648L16.8454 13.6373H14.6328L16.1704 3.92648C16.1751 3.89716 16.1907 3.86983 16.2134 3.85042C16.236 3.83101 16.2651 3.82031 16.2954 3.82031H20.0261C21.2646 3.82031 22.1193 4.07702 22.5656 4.58368C22.7748 4.82138 22.9081 5.06976 22.9725 5.3431C23.0401 5.62992 23.0413 5.97258 22.9753 6.39052L22.9705 6.42103V6.68881L23.1798 6.80688C23.356 6.89996 23.4959 7.00653 23.6033 7.12854C23.7823 7.33177 23.8981 7.59006 23.947 7.89627C23.9975 8.21122 23.9807 8.58597 23.8981 9.01025C23.8026 9.4983 23.6483 9.92337 23.4399 10.2712C23.2481 10.5917 23.0039 10.8574 22.714 11.0635C22.4372 11.2592 22.1082 11.4078 21.7364 11.5029C21.3759 11.5963 20.9651 11.6435 20.5145 11.6435H20.2241C20.0166 11.6435 19.8148 11.7179 19.6566 11.8515C19.4979 11.9877 19.3928 12.1738 19.3606 12.3775L19.3388 12.496L18.9713 14.8154L18.9545 14.9005C18.9502 14.9276 18.9426 14.941 18.9315 14.9501C18.9216 14.9584 18.9073 14.9639 18.8933 14.9639H17.1007Z" fill="#253B80"/>
<path d="M23.3776 6.45312C23.3665 6.52403 23.3538 6.59652 23.3394 6.671C22.8474 9.18694 21.1642 10.0561 19.0144 10.0561H17.9199C17.657 10.0561 17.4354 10.2462 17.3945 10.5045L16.834 14.0445L16.6753 15.0479C16.6487 15.2175 16.78 15.3704 16.9517 15.3704H18.8932C19.1231 15.3704 19.3183 15.204 19.3544 14.9783L19.3736 14.88L19.7391 12.5696L19.7626 12.4429C19.7983 12.2163 19.994 12.05 20.2239 12.05H20.5142C22.3951 12.05 23.8676 11.2893 24.298 9.0883C24.4777 8.16884 24.3846 7.40111 23.9089 6.86115C23.765 6.69833 23.5864 6.56325 23.3776 6.45312Z" fill="#179BD7"/>
<path d="M22.8611 6.2462C22.786 6.22441 22.7083 6.2046 22.6288 6.18678C22.5488 6.16935 22.4669 6.1539 22.3826 6.14043C22.0874 6.09289 21.7641 6.07031 21.4177 6.07031H18.4935C18.4215 6.07031 18.3532 6.08655 18.2919 6.11587C18.157 6.18044 18.0569 6.30761 18.0326 6.46329L17.4104 10.3875L17.3926 10.502C17.4336 10.2437 17.6551 10.0536 17.918 10.0536H19.0125C21.1623 10.0536 22.8456 9.18404 23.3376 6.66849C23.3522 6.59402 23.3646 6.52153 23.3757 6.45062C23.2512 6.38485 23.1164 6.3286 22.9712 6.28066C22.9355 6.26878 22.8985 6.2573 22.8611 6.2462Z" fill="#222D65"/>
<path d="M18.0328 6.46401C18.057 6.30831 18.1573 6.18115 18.2921 6.11698C18.3538 6.08766 18.4218 6.07142 18.4937 6.07142H21.4179C21.7644 6.07142 22.0877 6.094 22.3828 6.14154C22.4672 6.15501 22.5491 6.17046 22.629 6.18788C22.7086 6.20572 22.7861 6.22552 22.8613 6.24731C22.8987 6.2584 22.9357 6.26988 22.9718 6.28138C23.117 6.32931 23.2519 6.38596 23.3763 6.45133C23.5228 5.52156 23.3752 4.88852 22.8705 4.31529C22.3141 3.68423 21.3098 3.41406 20.0247 3.41406H16.2939C16.0313 3.41406 15.8075 3.6042 15.7669 3.86289L14.213 13.6735C14.1823 13.8676 14.3326 14.0427 14.5291 14.0427H16.8324L17.4107 10.3882L18.0328 6.46401Z" fill="#253B80"/>
</svg>
