<svg width="39" height="26" viewBox="0 0 39 26" fill="none" xmlns="http://www.w3.org/2000/svg">
<rect width="38.0685" height="25.9999" rx="4" fill="white"/>
<path fill-rule="evenodd" clip-rule="evenodd" d="M20.4533 8.81956L18.5195 9.23292V7.67133L20.4533 7.26562V8.81956ZM12.5966 8.15242L10.7167 8.55047L10.709 14.682C10.709 15.8149 11.5642 16.6493 12.7044 16.6493C13.3362 16.6493 13.7984 16.5345 14.0527 16.3967V14.8427C13.8061 14.9423 12.5889 15.2944 12.5889 14.1615V11.444H14.0527V9.81352H12.5889L12.5966 8.15242ZM8.04158 11.3448C7.63325 11.3448 7.38671 11.4596 7.38671 11.7581C7.38671 12.0841 7.81101 12.2275 8.3374 12.4054C9.19554 12.6954 10.325 13.077 10.3298 14.4909C10.3298 15.8611 9.22805 16.6496 7.62554 16.6496C6.96297 16.6496 6.23875 16.5194 5.52225 16.2133V14.3914C6.16942 14.7435 6.98608 15.0038 7.62554 15.0038C8.05699 15.0038 8.36516 14.889 8.36516 14.5368C8.36516 14.1758 7.90521 14.0107 7.34993 13.8115C6.50427 13.5081 5.4375 13.1253 5.4375 11.85C5.4375 10.4951 6.47759 9.68367 8.04158 9.68367C8.68104 9.68367 9.3128 9.78318 9.95226 10.0358V11.8347C9.36673 11.5208 8.62711 11.3448 8.04158 11.3448ZM30.3923 9.68367C32.2182 9.68367 33.1735 11.2299 33.1735 13.1896C33.1735 13.2954 33.1684 13.4724 33.1641 13.6224C33.1609 13.7328 33.1581 13.8287 33.1581 13.8709H29.3907C29.4755 14.7741 30.138 15.0344 30.8854 15.0344C31.6481 15.0344 32.249 14.8736 32.7729 14.6134V16.1444C32.249 16.4352 31.5556 16.6419 30.6388 16.6419C28.759 16.6419 27.4492 15.4784 27.4492 13.1743C27.4492 11.2299 28.5586 9.68367 30.3923 9.68367ZM30.3842 11.2384C29.8988 11.2384 29.3672 11.5981 29.3672 12.4631H31.3549C31.3549 11.5981 30.8541 11.2384 30.3842 11.2384ZM16.4476 10.382L16.3243 9.81553H14.6602V16.5135H16.5862V11.9742C17.0408 11.3848 17.8112 11.4919 18.0501 11.5761V9.81553C17.8035 9.72367 16.9021 9.55526 16.4476 10.382ZM18.5195 9.81473H20.4533V16.5127H18.5195V9.81473ZM24.477 9.68562C23.722 9.68562 23.2366 10.0377 22.967 10.2827L22.8668 9.8081H21.1719V18.7337L23.098 18.3279L23.1057 16.1616C23.383 16.3606 23.7914 16.6439 24.4693 16.6439C25.8484 16.6439 27.1042 15.5416 27.1042 13.115C27.0965 10.8951 25.8253 9.68562 24.477 9.68562ZM24.0145 14.9597C23.5599 14.9597 23.2903 14.7989 23.1054 14.5999L23.0977 11.7599C23.298 11.538 23.5753 11.3849 24.0145 11.3849C24.7156 11.3849 25.2009 12.1657 25.2009 13.1684C25.2009 14.1942 24.7233 14.9597 24.0145 14.9597Z" fill="#6461FC"/>
</svg>
