<svg width="69" height="69" viewBox="0 0 69 69" fill="none" xmlns="http://www.w3.org/2000/svg">
<path d="M32.47 26.8073L35.3788 31.8456L39.783 28.8494C44.2373 25.8191 48.1552 22.0672 51.3754 17.7481L54.0496 14.1613C54.798 13.1576 56.3938 13.7322 56.3303 14.9826L55.9044 23.3769C55.8815 23.8283 55.8355 24.2783 55.7665 24.7251C55.7665 24.7253 55.7665 24.7256 55.7666 24.7258C55.3115 27.679 53.8698 30.4072 51.6559 32.4529L41.2698 42.0491L43.9454 46.6833C44.5977 47.8132 43.5903 49.1779 42.3183 48.8871L25.4139 45.0231L25.4137 45.0231C24.5505 44.8257 24.0472 43.9253 24.3316 43.0865L29.7608 27.0745C30.1733 25.8577 31.8276 25.6946 32.47 26.8073Z" fill="#E3E231"/>
<path d="M32.4702 26.809L35.3791 31.8472L39.7832 28.8511C44.2376 25.8207 48.1554 22.0688 51.3756 17.7498L54.0498 14.1629C54.7983 13.1593 56.394 13.7339 56.3306 14.9843L55.9046 23.3785C55.8817 23.83 55.8357 24.28 55.7668 24.7268C56.4951 11.5268 37.0547 33.6448 35.8711 34.3281C34.6875 35.0114 33.0107 31.7071 31.6271 30.1773C30.2435 28.6475 25.417 45.0211 25.417 45.0211C25.417 45.0211 25.416 45.0224 25.4142 45.0248L25.4139 45.0248C24.5508 44.8274 24.0474 43.9269 24.3318 43.0882L29.7611 27.0762C30.1736 25.8594 31.8278 25.6963 32.4702 26.809Z" fill="#699F0F" fill-opacity="0.0666667"/>
<path d="M47.3803 22.5207C47.4095 22.5712 47.414 22.6348 47.387 22.6913C46.9131 23.6865 44.7239 25.578 40.8804 28.3129C38.033 30.3393 35.2857 32.1033 35.2583 32.1208C35.2162 32.1479 35.1647 32.1564 35.116 32.1447C35.0919 32.1388 35.0693 32.1281 35.0494 32.1133C35.0295 32.0984 35.0129 32.0797 35.0005 32.0582L31.9292 26.7386C31.7448 26.4192 31.4022 26.2418 31.0349 26.2756C30.6676 26.3094 30.3631 26.5464 30.2401 26.894L24.818 42.2166C24.8173 42.2185 24.8165 42.2205 24.8158 42.2223C24.4862 43.064 24.4455 43.6889 24.691 44.1326C24.9461 44.5921 25.5348 44.9035 26.4935 45.0848C26.4958 45.0851 26.498 45.0856 26.5003 45.0862L33.9193 46.7819C34.0179 46.8044 34.0797 46.9027 34.0572 47.0015C34.0347 47.1002 33.9364 47.1619 33.8376 47.1395L26.422 45.4445C25.8956 45.3449 25.4775 45.2097 25.1439 45.0314C24.7908 44.8429 24.5306 44.6003 24.3702 44.3105C24.0689 43.7659 24.1025 43.0401 24.4733 42.0917L29.8946 26.7719C30.0659 26.2877 30.4901 25.9577 31.0015 25.9108C31.513 25.8637 31.9901 26.1107 32.2469 26.5556L35.2219 31.7084C35.8512 31.3011 38.2233 29.7543 40.6691 28.0139C45.3916 24.6532 46.7491 23.179 47.0562 22.534C47.0997 22.4427 47.2091 22.4038 47.3006 22.4473C47.3341 22.463 47.3619 22.4886 47.3803 22.5207Z" fill="#1E1E1E"/>
<path d="M53.2751 21.9373L53.1888 22.6655C53.1888 22.6655 53.1939 22.6667 53.2047 22.667C53.2006 22.6669 52.7697 22.6585 51.6289 23.2017C49.7641 24.0897 47.4326 25.7624 45.8049 27.0091C45.6441 27.1324 45.414 27.1018 45.2908 26.9411C45.1678 26.7801 45.1982 26.5501 45.3589 26.427C51.3232 21.8584 53.0931 21.9158 53.2751 21.9373ZM44.2971 27.7149C44.3897 27.8753 44.3481 28.083 44.195 28.1944L41.557 30.1133C41.3933 30.2324 41.164 30.1962 41.0448 30.0324C40.9255 29.8686 40.9618 29.6394 41.1256 29.5202L43.7636 27.6013C43.9273 27.4821 44.1566 27.5183 44.2758 27.6821C44.2836 27.6929 44.2907 27.7038 44.2971 27.7149ZM38.0864 33.2013C38.161 33.3306 38.1517 33.4981 38.0503 33.6195C38.0285 33.6458 37.5078 34.2689 36.9069 34.8798C36.5477 35.2449 36.2337 35.5298 35.9739 35.7261C35.5476 36.0485 35.2406 36.1534 34.9782 36.0662C34.5533 35.9251 34.1526 35.3965 33.8881 35.0111C33.6072 34.6015 33.4015 34.2212 33.3928 34.2052C33.2968 34.0269 33.3634 33.8046 33.5418 33.7086C33.72 33.6126 33.9421 33.6786 34.0385 33.8575C34.0403 33.8611 34.2367 34.2238 34.4962 34.6013C34.8776 35.1563 35.0954 35.3131 35.1775 35.3563C35.2639 35.328 35.6096 35.1668 36.4812 34.2661C37.0206 33.7084 37.4825 33.1557 37.487 33.1502C37.6166 32.9947 37.8479 32.9737 38.0034 33.1033C38.0376 33.1315 38.0654 33.1649 38.0864 33.2013ZM32.8215 32.816C32.9101 32.9694 32.8765 33.1689 32.7344 33.2838C32.5771 33.4113 32.3461 33.387 32.2187 33.2296L31.3086 32.1056L29.0034 36.8898C28.9155 37.0722 28.6963 37.1489 28.5139 37.061C28.3315 36.9731 28.2548 36.7539 28.3427 36.5715L30.65 31.7828C30.7591 31.5562 30.9737 31.4035 31.2234 31.3744C31.4734 31.3453 31.717 31.4446 31.8753 31.6402L32.7885 32.7678C32.8009 32.7834 32.8119 32.7994 32.8215 32.816ZM40.3429 31.1097C40.4239 31.2501 40.4043 31.4327 40.2839 31.5526L39.3187 32.5141C39.1752 32.657 38.9431 32.6565 38.8002 32.513C38.6573 32.3696 38.6578 32.1374 38.8012 31.9945L39.7665 31.0331C39.91 30.8902 40.1421 30.8907 40.285 31.0341C40.308 31.0573 40.3273 31.0827 40.3429 31.1097Z" fill="#699F0F" fill-opacity="0.0666667"/>
<path d="M40.9017 45.2785C41.0584 45.55 41.1138 45.8802 41.0313 46.2083C40.8628 46.8779 40.1836 47.2841 39.5142 47.1156L32.8273 45.4336C32.1577 45.2652 31.7515 44.586 31.92 43.9165C32.0885 43.2469 32.7677 42.8407 33.4372 43.0093L40.124 44.6912C40.4655 44.7771 40.7385 44.9959 40.9017 45.2785Z" fill="#FFFAEE" fill-opacity="0.2"/>
</svg>
