<svg width="39" height="26" viewBox="0 0 39 26" fill="none" xmlns="http://www.w3.org/2000/svg">
<rect width="38.0685" height="25.9999" rx="4" fill="white"/>
<path fill-rule="evenodd" clip-rule="evenodd" d="M11.5568 17.6156H9.25059L7.52121 11.0443C7.43912 10.742 7.26484 10.4748 7.00847 10.3488C6.36866 10.0323 5.66364 9.78041 4.89453 9.65336V9.40036H8.60966C9.1224 9.40036 9.50696 9.78041 9.57105 10.2218L10.4683 14.9619L12.7734 9.40036H15.0156L11.5568 17.6156ZM16.2972 17.6156H14.1191L15.9126 9.40036H18.0906L16.2972 17.6156ZM20.9094 11.6763C20.9735 11.2338 21.3581 10.9808 21.8067 10.9808C22.5117 10.9173 23.2797 11.0443 23.9207 11.3598L24.3052 9.59098C23.6643 9.33798 22.9593 9.21094 22.3195 9.21094C20.2055 9.21094 18.6673 10.3489 18.6673 11.9282C18.6673 13.1296 19.7569 13.7605 20.526 14.1405C21.3581 14.5195 21.6785 14.7725 21.6144 15.1514C21.6144 15.7198 20.9735 15.9728 20.3337 15.9728C19.5646 15.9728 18.7955 15.7834 18.0916 15.4668L17.707 17.2367C18.4761 17.5522 19.3082 17.6792 20.0773 17.6792C22.4476 17.7416 23.9207 16.6048 23.9207 14.8984C23.9207 12.7496 20.9094 12.6237 20.9094 11.6763ZM31.5441 17.6156L29.8147 9.40036H27.9571C27.5726 9.40036 27.188 9.65336 27.0598 10.0323L23.8574 17.6156H26.0995L26.5471 16.4153H29.3019L29.5583 17.6156H31.5441ZM28.2748 11.6114L28.9146 14.7076H27.1211L28.2748 11.6114Z" fill="#172B85"/>
</svg>
