<svg width="114" height="28" viewBox="0 0 114 28" fill="none" xmlns="http://www.w3.org/2000/svg">
<path d="M104.973 28.0004C102.244 28.0004 100.091 27.5584 98.5128 26.6745C96.9346 25.7645 96.1455 24.5556 96.1455 23.0477C96.1455 22.3718 96.4397 21.7998 97.0282 21.3318C97.6434 20.8639 98.6198 20.6299 99.9572 20.6299C100.171 21.6698 100.706 22.4888 101.562 23.0867C102.418 23.6587 103.421 23.9446 104.571 23.9446C105.909 23.9446 106.939 23.7887 107.661 23.4767C108.41 23.1647 108.784 22.7097 108.784 22.1118C108.784 21.5918 108.49 21.1369 107.902 20.7469C107.313 20.3569 106.136 19.9539 104.371 19.538C102.311 19.07 100.706 18.602 99.556 18.1341C98.4325 17.6401 97.6033 17.0291 97.0683 16.3012C96.5334 15.5732 96.2659 14.6113 96.2659 13.4154C96.2659 11.7255 96.9881 10.3736 98.4325 9.35969C99.9037 8.31977 101.95 7.7998 104.571 7.7998C107.139 7.7998 109.226 8.22877 110.83 9.08671C112.435 9.94465 113.238 11.0886 113.238 12.5185C113.238 13.2464 112.957 13.7794 112.395 14.1174C111.834 14.4293 110.897 14.5983 109.587 14.6243C109.239 13.6364 108.704 12.9084 107.982 12.4405C107.286 11.9465 106.283 11.6995 104.973 11.6995C104.036 11.6995 103.207 11.8555 102.485 12.1675C101.763 12.4795 101.402 12.8564 101.402 13.2984C101.402 13.7924 101.696 14.1823 102.284 14.4683C102.9 14.7543 103.916 15.0403 105.334 15.3263C108.41 15.9762 110.616 16.8342 111.954 17.9001C113.318 18.966 114 20.4089 114 22.2288C114 23.3467 113.639 24.3476 112.917 25.2316C112.195 26.1155 111.151 26.8044 109.787 27.2984C108.423 27.7664 106.818 28.0004 104.973 28.0004Z" fill="white"/>
<path d="M84.4886 28.0004C82.7232 28.0004 81.1584 27.6884 79.7942 27.0644C78.43 26.4405 77.3601 25.5825 76.5844 24.4906C75.8354 23.3727 75.4609 22.1118 75.4609 20.7079V15.5213C75.4609 14.0134 75.8354 12.6745 76.5844 11.5045C77.3601 10.3346 78.43 9.42469 79.7942 8.77473C81.1584 8.12478 82.7098 7.7998 84.4485 7.7998C86.0801 7.7998 87.5245 8.03379 88.7817 8.50175C90.0389 8.94372 91.0152 9.56768 91.7107 10.3736C92.4329 11.1796 92.794 12.1025 92.794 13.1424C92.794 14.0004 92.4463 14.6893 91.7508 15.2093C91.0554 15.7292 90.1325 15.9892 88.9823 15.9892C88.6346 15.9892 88.3805 15.9762 88.22 15.9502C88.22 14.9103 87.8857 14.0654 87.2169 13.4154C86.5482 12.7395 85.6789 12.4015 84.609 12.4015C83.539 12.4015 82.6563 12.7265 81.9608 13.3764C81.2921 14.0004 80.9578 14.8063 80.9578 15.7942V20.3179C80.9578 21.2278 81.2921 21.9688 81.9608 22.5408C82.6563 23.1127 83.5524 23.3987 84.6491 23.3987C85.719 23.3987 86.5883 23.0737 87.2571 22.4238C87.9525 21.7738 88.3003 20.9289 88.3003 19.8889C88.4875 19.8629 88.755 19.8499 89.1027 19.8499C90.2529 19.8499 91.1757 20.1099 91.8712 20.6299C92.5666 21.1239 92.9144 21.7998 92.9144 22.6577C92.9144 23.6977 92.5533 24.6206 91.8311 25.4265C91.1356 26.2325 90.1459 26.8694 88.862 27.3374C87.578 27.7794 86.1202 28.0004 84.4886 28.0004Z" fill="white"/>
<path d="M67.6735 6.31755C66.657 6.31755 65.8011 6.03157 65.1056 5.45961C64.4369 4.86165 64.1025 4.09471 64.1025 3.15878C64.1025 2.22284 64.4369 1.4689 65.1056 0.896936C65.8011 0.298979 66.657 0 67.6735 0C68.6899 0 69.5325 0.298979 70.2012 0.896936C70.8967 1.4689 71.2444 2.22284 71.2444 3.15878C71.2444 4.09471 70.8967 4.86165 70.2012 5.45961C69.5325 6.03157 68.6899 6.31755 67.6735 6.31755ZM64.905 10.9192C64.905 9.8013 65.3597 9.00836 66.2692 8.54039C67.1786 8.04643 68.5562 7.79944 70.4018 7.79944V24.8802C70.4018 25.9981 69.9471 26.8041 69.0377 27.298C68.1282 27.766 66.7507 28 64.905 28V10.9192Z" fill="white"/>
<path d="M41.416 4.05571C41.416 2.7818 41.8841 1.79387 42.8203 1.09192C43.7833 0.363974 45.1474 0 46.9128 0V10.1003C46.5116 10.5162 46.1773 10.9582 45.9098 11.4262L46.1906 11.5822C47.9828 9.06035 50.3099 7.79944 53.172 7.79944C54.5094 7.79944 55.6864 8.09842 56.7028 8.69638C57.746 9.29434 58.5618 10.1263 59.1503 11.1922C59.7388 12.2321 60.033 13.402 60.033 14.702V24.8802C60.033 25.9981 59.5783 26.8041 58.6688 27.298C57.7594 27.766 56.3818 28 54.5362 28V15.5209C54.5362 14.637 54.242 13.896 53.6535 13.298C53.0918 12.7001 52.2893 12.4011 51.2461 12.4011C49.9622 12.4011 48.919 12.8041 48.1165 13.61C47.3141 14.416 46.9128 15.4299 46.9128 16.6518V24.8802C46.9128 25.9981 46.4581 26.8041 45.5487 27.298C44.6392 27.766 43.2617 28 41.416 28V4.05571Z" fill="white"/>
<path d="M32.7571 28.0003C30.4835 28.0003 28.8117 27.3634 27.7417 26.0895C26.6718 24.8156 26.1368 23.1777 26.1368 21.1758V12.0895H21.8838C21.8838 10.7636 22.1379 9.77564 22.6461 9.12568C23.1543 8.47573 23.8231 8.15075 24.6523 8.15075H26.2171V5.06997C26.2171 3.95205 26.6584 3.15911 27.5411 2.69114C28.4238 2.19718 29.7612 1.9502 31.5534 1.9502V8.15075H36.8897C36.8897 9.55465 36.6223 10.5686 36.0873 11.1925C35.5523 11.7905 34.6696 12.0895 33.4392 12.0895H31.6336V20.9808C31.6336 21.8388 31.8075 22.4627 32.1552 22.8527C32.503 23.2167 33.1048 23.3987 33.9608 23.3987C34.897 23.3987 35.8599 23.1387 36.8496 22.6187C37.1438 22.8787 37.3712 23.2037 37.5317 23.5936C37.7189 23.9836 37.8126 24.3736 37.8126 24.7636C37.8126 25.2835 37.6253 25.7905 37.2508 26.2845C36.8764 26.7784 36.3013 27.1944 35.5256 27.5324C34.7766 27.8443 33.8538 28.0003 32.7571 28.0003Z" fill="white"/>
<path d="M0 2.96438C0 2.23643 0.28086 1.62547 0.84258 1.13151C1.43105 0.611544 2.13989 0.351562 2.96909 0.351562H20.904C20.904 2.06744 20.6098 3.31535 20.0213 4.0953C19.4328 4.87524 18.4833 5.26521 17.1726 5.26521H5.89806V11.4268H16.4102C16.4102 13.1426 16.116 14.3906 15.5275 15.1705C14.9391 15.9504 13.9895 16.3404 12.6788 16.3404H5.89806V22.736H18.0152C19.2991 22.736 20.2353 23.1259 20.8238 23.9059C21.4122 24.6858 21.7065 25.9337 21.7065 27.6496H2.96909C2.13989 27.6496 1.43105 27.4026 0.84258 26.9087C0.28086 26.4147 0 25.7907 0 25.0368V2.96438Z" fill="white"/>
</svg>
