<svg width="20" height="20" viewBox="0 0 20 20" fill="none" xmlns="http://www.w3.org/2000/svg">
<rect width="20" height="20" rx="3" fill="url(#paint0_linear_4295_190)"/>
<path d="M7 6.76571C7 6.55238 7.07763 6.37333 7.2329 6.22857C7.39556 6.07619 7.5915 6 7.8207 6H12.7782C12.7782 6.50286 12.6969 6.86857 12.5342 7.09714C12.3715 7.32571 12.1091 7.44 11.7468 7.44H8.63031V9.24571H11.536C11.536 9.74857 11.4547 10.1143 11.2921 10.3429C11.1294 10.5714 10.8669 10.6857 10.5046 10.6857H8.63031V12.56H11.9797C12.3346 12.56 12.5933 12.6743 12.756 12.9029C12.9187 13.1314 13 13.4971 13 14H7.8207C7.5915 14 7.39556 13.9276 7.2329 13.7829C7.07763 13.6381 7 13.4552 7 13.2343V6.76571Z" fill="#1E1E1E"/>
<defs>
<linearGradient id="paint0_linear_4295_190" x1="1" y1="-2.82377e-07" x2="17.625" y2="20" gradientUnits="userSpaceOnUse">
<stop stop-color="#FFFFCC"/>
<stop offset="1" stop-color="#F8F7DB"/>
</linearGradient>
</defs>
</svg>
