<svg width="114" height="28" viewBox="0 0 114 28" fill="none" xmlns="http://www.w3.org/2000/svg">
<path d="M104.972 28.0013C102.243 28.0013 100.09 27.5594 98.5118 26.6754C96.9336 25.7655 96.1445 24.5566 96.1445 23.0487C96.1445 22.3727 96.4388 21.8008 97.0272 21.3328C97.6425 20.8648 98.6188 20.6309 99.9562 20.6309C100.17 21.6708 100.705 22.4897 101.561 23.0877C102.417 23.6596 103.42 23.9456 104.57 23.9456C105.908 23.9456 106.938 23.7896 107.66 23.4777C108.409 23.1657 108.783 22.7107 108.783 22.1128C108.783 21.5928 108.489 21.1378 107.901 20.7479C107.312 20.3579 106.135 19.9549 104.37 19.5389C102.31 19.071 100.705 18.603 99.555 18.135C98.4315 17.6411 97.6023 17.0301 97.0674 16.3022C96.5324 15.5742 96.2649 14.6123 96.2649 13.4164C96.2649 11.7265 96.9871 10.3746 98.4315 9.36067C99.9027 8.32074 101.949 7.80078 104.57 7.80078C107.138 7.80078 109.225 8.22975 110.83 9.08769C112.434 9.94563 113.237 11.0895 113.237 12.5194C113.237 13.2474 112.956 13.7804 112.394 14.1183C111.833 14.4303 110.896 14.5993 109.586 14.6253C109.238 13.6374 108.703 12.9094 107.981 12.4414C107.285 11.9475 106.282 11.7005 104.972 11.7005C104.035 11.7005 103.206 11.8565 102.484 12.1685C101.762 12.4804 101.401 12.8574 101.401 13.2994C101.401 13.7934 101.695 14.1833 102.283 14.4693C102.899 14.7553 103.915 15.0413 105.333 15.3272C108.409 15.9772 110.616 16.8351 111.953 17.9011C113.317 18.967 113.999 20.4099 113.999 22.2297C113.999 23.3477 113.638 24.3486 112.916 25.2325C112.194 26.1165 111.15 26.8054 109.786 27.2994C108.422 27.7674 106.817 28.0013 104.972 28.0013Z" fill="white"/>
<path d="M84.4886 28.0013C82.7232 28.0013 81.1584 27.6894 79.7942 27.0654C78.43 26.4414 77.3601 25.5835 76.5844 24.4916C75.8354 23.3737 75.4609 22.1128 75.4609 20.7089V15.5222C75.4609 14.0143 75.8354 12.6754 76.5844 11.5055C77.3601 10.3356 78.43 9.42567 79.7942 8.77571C81.1584 8.12576 82.7098 7.80078 84.4485 7.80078C86.0801 7.80078 87.5245 8.03476 88.7817 8.50273C90.0389 8.9447 91.0152 9.56865 91.7107 10.3746C92.4329 11.1805 92.794 12.1035 92.794 13.1434C92.794 14.0013 92.4463 14.6903 91.7508 15.2103C91.0554 15.7302 90.1325 15.9902 88.9823 15.9902C88.6346 15.9902 88.3805 15.9772 88.22 15.9512C88.22 14.9113 87.8857 14.0663 87.2169 13.4164C86.5482 12.7404 85.6789 12.4025 84.609 12.4025C83.539 12.4025 82.6563 12.7274 81.9608 13.3774C81.2921 14.0013 80.9578 14.8073 80.9578 15.7952V20.3189C80.9578 21.2288 81.2921 21.9698 81.9608 22.5417C82.6563 23.1137 83.5524 23.3997 84.6491 23.3997C85.719 23.3997 86.5883 23.0747 87.2571 22.4247C87.9525 21.7748 88.3003 20.9298 88.3003 19.8899C88.4875 19.8639 88.755 19.8509 89.1027 19.8509C90.2529 19.8509 91.1757 20.1109 91.8712 20.6309C92.5666 21.1248 92.9144 21.8008 92.9144 22.6587C92.9144 23.6986 92.5533 24.6216 91.8311 25.4275C91.1356 26.2335 90.1459 26.8704 88.862 27.3384C87.578 27.7804 86.1202 28.0013 84.4886 28.0013Z" fill="white"/>
<path d="M67.6725 6.31755C66.6561 6.31755 65.8001 6.03157 65.1046 5.45961C64.4359 4.86165 64.1016 4.09471 64.1016 3.15878C64.1016 2.22284 64.4359 1.4689 65.1046 0.896936C65.8001 0.298979 66.6561 0 67.6725 0C68.6889 0 69.5315 0.298979 70.2002 0.896936C70.8957 1.4689 71.2434 2.22284 71.2434 3.15878C71.2434 4.09471 70.8957 4.86165 70.2002 5.45961C69.5315 6.03157 68.6889 6.31755 67.6725 6.31755ZM64.904 10.9192C64.904 9.8013 65.3587 9.00836 66.2682 8.54039C67.1777 8.04643 68.5552 7.79944 70.4009 7.79944V24.8802C70.4009 25.9981 69.9461 26.8041 69.0367 27.298C68.1272 27.766 66.7497 28 64.904 28V10.9192Z" fill="white"/>
<path d="M41.416 4.05571C41.416 2.7818 41.8841 1.79387 42.8203 1.09192C43.7833 0.363974 45.1474 0 46.9128 0V10.1003C46.5116 10.5162 46.1773 10.9582 45.9098 11.4262L46.1906 11.5822C47.9828 9.06035 50.3099 7.79944 53.172 7.79944C54.5094 7.79944 55.6864 8.09842 56.7028 8.69638C57.746 9.29434 58.5618 10.1263 59.1503 11.1922C59.7388 12.2321 60.033 13.402 60.033 14.702V24.8802C60.033 25.9981 59.5783 26.8041 58.6688 27.298C57.7594 27.766 56.3818 28 54.5362 28V15.5209C54.5362 14.637 54.242 13.896 53.6535 13.298C53.0918 12.7001 52.2893 12.4011 51.2461 12.4011C49.9622 12.4011 48.919 12.8041 48.1165 13.61C47.3141 14.416 46.9128 15.4299 46.9128 16.6518V24.8802C46.9128 25.9981 46.4581 26.8041 45.5487 27.298C44.6392 27.766 43.2617 28 41.416 28V4.05571Z" fill="white"/>
<path d="M32.7561 27.9994C30.4825 27.9994 28.8107 27.3624 27.7407 26.0885C26.6708 24.8146 26.1358 23.1767 26.1358 21.1748V12.0885H21.8828C21.8828 10.7626 22.1369 9.77466 22.6451 9.12471C23.1534 8.47475 23.8221 8.14978 24.6513 8.14978H26.2161V5.06899C26.2161 3.95108 26.6574 3.15813 27.5401 2.69017C28.4228 2.1962 29.7603 1.94922 31.5524 1.94922V8.14978H36.8888C36.8888 9.55368 36.6213 10.5676 36.0863 11.1916C35.5513 11.7895 34.6686 12.0885 33.4382 12.0885H31.6327V20.9799C31.6327 21.8378 31.8065 22.4618 32.1543 22.8517C32.502 23.2157 33.1038 23.3977 33.9598 23.3977C34.896 23.3977 35.8589 23.1377 36.8486 22.6177C37.1429 22.8777 37.3702 23.2027 37.5307 23.5927C37.718 23.9826 37.8116 24.3726 37.8116 24.7626C37.8116 25.2826 37.6243 25.7895 37.2499 26.2835C36.8754 26.7774 36.3003 27.1934 35.5246 27.5314C34.7756 27.8434 33.8528 27.9994 32.7561 27.9994Z" fill="white"/>
<path d="M0 2.96438C0 2.23643 0.28086 1.62547 0.84258 1.13151C1.43105 0.611544 2.13989 0.351562 2.96909 0.351562H20.904C20.904 2.06744 20.6098 3.31535 20.0213 4.0953C19.4328 4.87524 18.4833 5.26521 17.1726 5.26521H5.89806V11.4268H16.4102C16.4102 13.1426 16.116 14.3906 15.5275 15.1705C14.9391 15.9504 13.9895 16.3404 12.6788 16.3404H5.89806V22.736H18.0152C19.2991 22.736 20.2353 23.1259 20.8238 23.9059C21.4122 24.6858 21.7065 25.9337 21.7065 27.6496H2.96909C2.13989 27.6496 1.43105 27.4026 0.84258 26.9087C0.28086 26.4147 0 25.7907 0 25.0368V2.96438Z" fill="white"/>
</svg>
