<svg width="59" height="42" viewBox="0 0 59 42" fill="none" xmlns="http://www.w3.org/2000/svg">
<g opacity="0.05">
<path d="M27.8217 13.5237C27.7943 13.2428 27.7396 12.9551 27.6712 12.6742C27.062 5.57665 21.1144 0 13.8664 0C6.2077 0 0 6.21378 0 13.88C0 21.3269 5.85865 27.3831 13.2093 27.7257C11.4367 30.5277 8.58264 32.7953 5.09894 33.8641L4.98259 33.8983C3.36735 34.3916 2.25175 35.9673 2.40232 37.7212C2.57342 39.7422 4.34608 41.2425 6.37196 41.0713C12.3333 40.5643 18.2946 37.5156 22.3464 32.5624C24.3791 30.0961 25.9533 27.1913 26.9114 24.0262C27.8765 20.8679 28.205 17.4561 27.8765 14.0923L27.8217 13.5237Z" fill="#1E1E1E"/>
<path d="M58.8217 13.5237C58.7943 13.2428 58.7396 12.9551 58.6712 12.6742C58.062 5.57665 52.1144 0 44.8664 0C37.2077 0 31 6.21378 31 13.88C31 21.3269 36.8586 27.3831 44.2093 27.7257C42.4367 30.5277 39.5826 32.7953 36.0989 33.8641L35.9826 33.8983C34.3674 34.3916 33.2517 35.9673 33.4023 37.7212C33.5734 39.7422 35.3461 41.2425 37.372 41.0713C43.3333 40.5643 49.2946 37.5156 53.3464 32.5624C55.3791 30.0961 56.9533 27.1913 57.9114 24.0262C58.8765 20.8679 59.205 17.4561 58.8765 14.0923L58.8217 13.5237Z" fill="#1E1E1E"/>
</g>
</svg>
